<svg width="1557.6000000000001" height="627.0" xmlns="http://www.w3.org/2000/svg" xmlns:xlink="http://www.w3.org/1999/xlink"><line x1="170.125" y1="7.5" x2="49.0" y2="32.0" style="stroke:black; stroke-width:1px;" />
<line x1="49.0" y1="39.5" x2="10.0" y2="64.0" style="stroke:black; stroke-width:1px;" />
<line x1="49.0" y1="39.5" x2="32.0" y2="64.0" style="stroke:black; stroke-width:1px;" />
<line x1="49.0" y1="39.5" x2="51.5" y2="64.0" style="stroke:black; stroke-width:1px;" />
<line x1="49.0" y1="39.5" x2="71.0" y2="64.0" style="stroke:black; stroke-width:1px;" />
<line x1="49.0" y1="39.5" x2="88.0" y2="64.0" style="stroke:black; stroke-width:1px;" />
<line x1="170.125" y1="7.5" x2="123.5" y2="32.0" style="stroke:black; stroke-width:1px;" />
<line x1="123.5" y1="39.5" x2="105.0" y2="64.0" style="stroke:black; stroke-width:1px;" />
<line x1="123.5" y1="39.5" x2="122.0" y2="64.0" style="stroke:black; stroke-width:1px;" />
<line x1="123.5" y1="39.5" x2="142.0" y2="64.0" style="stroke:black; stroke-width:1px;" />
<line x1="170.125" y1="7.5" x2="187.75" y2="32.0" style="stroke:black; stroke-width:1px;" />
<line x1="187.75" y1="39.5" x2="167.0" y2="64.0" style="stroke:black; stroke-width:1px;" />
<line x1="187.75" y1="39.5" x2="189.0" y2="64.0" style="stroke:black; stroke-width:1px;" />
<line x1="187.75" y1="39.5" x2="208.5" y2="64.0" style="stroke:black; stroke-width:1px;" />
<line x1="170.125" y1="7.5" x2="248.25" y2="32.0" style="stroke:black; stroke-width:1px;" />
<line x1="248.25" y1="39.5" x2="228.0" y2="64.0" style="stroke:black; stroke-width:1px;" />
<line x1="248.25" y1="39.5" x2="245.0" y2="64.0" style="stroke:black; stroke-width:1px;" />
<line x1="248.25" y1="39.5" x2="268.5" y2="64.0" style="stroke:black; stroke-width:1px;" />
<line x1="268.5" y1="71.5" x2="245.0" y2="96.0" style="stroke:black; stroke-width:1px;" />
<line x1="245.0" y1="103.5" x2="245.0" y2="128.0" style="stroke:black; stroke-width:1px;" />
<line x1="268.5" y1="71.5" x2="268.5" y2="96.0" style="stroke:black; stroke-width:1px;" />
<line x1="268.5" y1="71.5" x2="292.0" y2="96.0" style="stroke:black; stroke-width:1px;" />
<line x1="292.0" y1="103.5" x2="292.0" y2="128.0" style="stroke:black; stroke-width:1px;" />
<line x1="170.125" y1="7.5" x2="291.25" y2="32.0" style="stroke:black; stroke-width:1px;" />
<rect x="223.0" y="64.0" width="10.0" height="15.0" style="fill:orange; stroke:rgb(0,0,0);" rx="1"/>
<text x="225" y="73" style="font-family:sans-serif;font-size:10px;">
a
</text>
<rect x="233.5" y="96.0" width="23.0" height="15.0" style="fill:orange; stroke:rgb(0,0,0);" rx="1"/>
<text x="235" y="105" style="font-family:sans-serif;font-size:10px;">
arth
</text>
<rect x="241.0" y="128.0" width="8.0" height="15.0" style="fill:orange; stroke:rgb(0,0,0);" rx="1"/>
<text x="243" y="137" style="font-family:sans-serif;font-size:10px;">
r
</text>
<rect x="184.0" y="64.0" width="10.0" height="15.0" style="fill:orange; stroke:rgb(0,0,0);" rx="1"/>
<text x="186" y="73" style="font-family:sans-serif;font-size:10px;">
a
</text>
<rect x="288.0" y="128.0" width="8.0" height="15.0" style="fill:orange; stroke:rgb(0,0,0);" rx="1"/>
<text x="290" y="137" style="font-family:sans-serif;font-size:10px;">
r
</text>
<rect x="105.5" y="32.0" width="36.0" height="15.0" style="fill:orange; stroke:rgb(0,0,0);" rx="1"/>
<text x="107" y="41" style="font-family:sans-serif;font-size:10px;">
assign
</text>
<rect x="66.0" y="64.0" width="10.0" height="15.0" style="fill:orange; stroke:rgb(0,0,0);" rx="1"/>
<text x="68" y="73" style="font-family:sans-serif;font-size:10px;">
=
</text>
<rect x="263.5" y="96.0" width="10.0" height="15.0" style="fill:orange; stroke:rgb(0,0,0);" rx="1"/>
<text x="265" y="105" style="font-family:sans-serif;font-size:10px;">
+
</text>
<rect x="0.0" y="64.0" width="20.0" height="15.0" style="fill:orange; stroke:rgb(0,0,0);" rx="1"/>
<text x="2" y="73" style="font-family:sans-serif;font-size:10px;">
var
</text>
<rect x="280.5" y="96.0" width="23.0" height="15.0" style="fill:orange; stroke:rgb(0,0,0);" rx="1"/>
<text x="282" y="105" style="font-family:sans-serif;font-size:10px;">
arth
</text>
<rect x="27.0" y="64.0" width="10.0" height="15.0" style="fill:orange; stroke:rgb(0,0,0);" rx="1"/>
<text x="29" y="73" style="font-family:sans-serif;font-size:10px;">
b
</text>
<rect x="134.0" y="64.0" width="16.0" height="15.0" style="fill:orange; stroke:rgb(0,0,0);" rx="1"/>
<text x="136" y="73" style="font-family:sans-serif;font-size:10px;">
55
</text>
<rect x="273.25" y="32.0" width="36.0" height="15.0" style="fill:orange; stroke:rgb(0,0,0);" rx="1"/>
<text x="275" y="41" style="font-family:sans-serif;font-size:10px;">
&lt;EOF&gt;
</text>
<rect x="201.0" y="64.0" width="15.0" height="15.0" style="fill:orange; stroke:rgb(0,0,0);" rx="1"/>
<text x="203" y="73" style="font-family:sans-serif;font-size:10px;">
Int
</text>
<rect x="175.75" y="32.0" width="24.0" height="15.0" style="fill:orange; stroke:rgb(0,0,0);" rx="1"/>
<text x="177" y="41" style="font-family:sans-serif;font-size:10px;">
decl
</text>
<rect x="83.0" y="64.0" width="10.0" height="15.0" style="fill:orange; stroke:rgb(0,0,0);" rx="1"/>
<text x="85" y="73" style="font-family:sans-serif;font-size:10px;">
6
</text>
<rect x="157.125" y="0.0" width="26.0" height="15.0" style="fill:orange; stroke:rgb(0,0,0);" rx="1"/>
<text x="159" y="9" style="font-family:sans-serif;font-size:10px;">
prog
</text>
<rect x="44.0" y="64.0" width="15.0" height="15.0" style="fill:orange; stroke:rgb(0,0,0);" rx="1"/>
<text x="46" y="73" style="font-family:sans-serif;font-size:10px;">
Int
</text>
<rect x="37.0" y="32.0" width="24.0" height="15.0" style="fill:orange; stroke:rgb(0,0,0);" rx="1"/>
<text x="39" y="41" style="font-family:sans-serif;font-size:10px;">
decl
</text>
<rect x="117.0" y="64.0" width="10.0" height="15.0" style="fill:orange; stroke:rgb(0,0,0);" rx="1"/>
<text x="119" y="73" style="font-family:sans-serif;font-size:10px;">
=
</text>
<rect x="100.0" y="64.0" width="10.0" height="15.0" style="fill:orange; stroke:rgb(0,0,0);" rx="1"/>
<text x="102" y="73" style="font-family:sans-serif;font-size:10px;">
b
</text>
<rect x="157.0" y="64.0" width="20.0" height="15.0" style="fill:orange; stroke:rgb(0,0,0);" rx="1"/>
<text x="159" y="73" style="font-family:sans-serif;font-size:10px;">
var
</text>
<rect x="240.0" y="64.0" width="10.0" height="15.0" style="fill:orange; stroke:rgb(0,0,0);" rx="1"/>
<text x="242" y="73" style="font-family:sans-serif;font-size:10px;">
=
</text>
<rect x="257.0" y="64.0" width="23.0" height="15.0" style="fill:orange; stroke:rgb(0,0,0);" rx="1"/>
<text x="259" y="73" style="font-family:sans-serif;font-size:10px;">
arth
</text>
<rect x="230.25" y="32.0" width="36.0" height="15.0" style="fill:orange; stroke:rgb(0,0,0);" rx="1"/>
<text x="232" y="41" style="font-family:sans-serif;font-size:10px;">
assign
</text>
</svg>