<svg width="1557.6000000000001" height="627.0" xmlns="http://www.w3.org/2000/svg" xmlns:xlink="http://www.w3.org/1999/xlink"><line x1="266.5" y1="7.5" x2="33.25" y2="32.0" style="stroke:black; stroke-width:1px;" />
<line x1="33.25" y1="39.5" x2="10.0" y2="64.0" style="stroke:black; stroke-width:1px;" />
<line x1="33.25" y1="39.5" x2="32.0" y2="64.0" style="stroke:black; stroke-width:1px;" />
<line x1="33.25" y1="39.5" x2="56.5" y2="64.0" style="stroke:black; stroke-width:1px;" />
<line x1="266.5" y1="7.5" x2="111.25" y2="32.0" style="stroke:black; stroke-width:1px;" />
<line x1="111.25" y1="39.5" x2="86.0" y2="64.0" style="stroke:black; stroke-width:1px;" />
<line x1="111.25" y1="39.5" x2="110.0" y2="64.0" style="stroke:black; stroke-width:1px;" />
<line x1="111.25" y1="39.5" x2="136.5" y2="64.0" style="stroke:black; stroke-width:1px;" />
<line x1="266.5" y1="7.5" x2="191.25" y2="32.0" style="stroke:black; stroke-width:1px;" />
<line x1="191.25" y1="39.5" x2="166.0" y2="64.0" style="stroke:black; stroke-width:1px;" />
<line x1="191.25" y1="39.5" x2="190.0" y2="64.0" style="stroke:black; stroke-width:1px;" />
<line x1="191.25" y1="39.5" x2="216.5" y2="64.0" style="stroke:black; stroke-width:1px;" />
<line x1="266.5" y1="7.5" x2="259.5" y2="32.0" style="stroke:black; stroke-width:1px;" />
<line x1="259.5" y1="39.5" x2="259.5" y2="64.0" style="stroke:black; stroke-width:1px;" />
<line x1="259.5" y1="71.5" x2="189.75" y2="96.0" style="stroke:black; stroke-width:1px;" />
<line x1="259.5" y1="71.5" x2="214.75" y2="96.0" style="stroke:black; stroke-width:1px;" />
<line x1="214.75" y1="103.5" x2="190.75" y2="128.0" style="stroke:black; stroke-width:1px;" />
<line x1="214.75" y1="103.5" x2="214.75" y2="128.0" style="stroke:black; stroke-width:1px;" />
<line x1="214.75" y1="135.5" x2="189.75" y2="160.0" style="stroke:black; stroke-width:1px;" />
<line x1="189.75" y1="167.5" x2="189.75" y2="192.0" style="stroke:black; stroke-width:1px;" />
<line x1="214.75" y1="135.5" x2="214.75" y2="160.0" style="stroke:black; stroke-width:1px;" />
<line x1="214.75" y1="135.5" x2="239.75" y2="160.0" style="stroke:black; stroke-width:1px;" />
<line x1="239.75" y1="167.5" x2="239.75" y2="192.0" style="stroke:black; stroke-width:1px;" />
<line x1="214.75" y1="103.5" x2="238.75" y2="128.0" style="stroke:black; stroke-width:1px;" />
<line x1="259.5" y1="71.5" x2="256.5" y2="96.0" style="stroke:black; stroke-width:1px;" />
<line x1="259.5" y1="71.5" x2="298.25" y2="96.0" style="stroke:black; stroke-width:1px;" />
<line x1="298.25" y1="103.5" x2="274.25" y2="128.0" style="stroke:black; stroke-width:1px;" />
<line x1="298.25" y1="103.5" x2="298.25" y2="128.0" style="stroke:black; stroke-width:1px;" />
<line x1="298.25" y1="135.5" x2="272.75" y2="160.0" style="stroke:black; stroke-width:1px;" />
<line x1="272.75" y1="167.5" x2="272.75" y2="192.0" style="stroke:black; stroke-width:1px;" />
<line x1="298.25" y1="135.5" x2="298.25" y2="160.0" style="stroke:black; stroke-width:1px;" />
<line x1="298.25" y1="135.5" x2="323.75" y2="160.0" style="stroke:black; stroke-width:1px;" />
<line x1="323.75" y1="167.5" x2="299.75" y2="192.0" style="stroke:black; stroke-width:1px;" />
<line x1="299.75" y1="199.5" x2="299.75" y2="224.0" style="stroke:black; stroke-width:1px;" />
<line x1="323.75" y1="167.5" x2="323.75" y2="192.0" style="stroke:black; stroke-width:1px;" />
<line x1="323.75" y1="167.5" x2="347.75" y2="192.0" style="stroke:black; stroke-width:1px;" />
<line x1="347.75" y1="199.5" x2="347.75" y2="224.0" style="stroke:black; stroke-width:1px;" />
<line x1="298.25" y1="103.5" x2="322.25" y2="128.0" style="stroke:black; stroke-width:1px;" />
<line x1="259.5" y1="71.5" x2="329.25" y2="96.0" style="stroke:black; stroke-width:1px;" />
<line x1="266.5" y1="7.5" x2="315.75" y2="32.0" style="stroke:black; stroke-width:1px;" />
<line x1="315.75" y1="39.5" x2="295.0" y2="64.0" style="stroke:black; stroke-width:1px;" />
<line x1="315.75" y1="39.5" x2="312.0" y2="64.0" style="stroke:black; stroke-width:1px;" />
<line x1="315.75" y1="39.5" x2="336.5" y2="64.0" style="stroke:black; stroke-width:1px;" />
<line x1="266.5" y1="7.5" x2="385.0" y2="32.0" style="stroke:black; stroke-width:1px;" />
<line x1="385.0" y1="39.5" x2="363.0" y2="64.0" style="stroke:black; stroke-width:1px;" />
<line x1="385.0" y1="39.5" x2="382.0" y2="64.0" style="stroke:black; stroke-width:1px;" />
<line x1="385.0" y1="39.5" x2="407.0" y2="64.0" style="stroke:black; stroke-width:1px;" />
<line x1="407.0" y1="71.5" x2="383.0" y2="96.0" style="stroke:black; stroke-width:1px;" />
<line x1="383.0" y1="103.5" x2="383.0" y2="128.0" style="stroke:black; stroke-width:1px;" />
<line x1="407.0" y1="71.5" x2="407.0" y2="96.0" style="stroke:black; stroke-width:1px;" />
<line x1="407.0" y1="71.5" x2="431.0" y2="96.0" style="stroke:black; stroke-width:1px;" />
<line x1="431.0" y1="103.5" x2="431.0" y2="128.0" style="stroke:black; stroke-width:1px;" />
<line x1="266.5" y1="7.5" x2="461.75" y2="32.0" style="stroke:black; stroke-width:1px;" />
<line x1="461.75" y1="39.5" x2="443.5" y2="64.0" style="stroke:black; stroke-width:1px;" />
<line x1="461.75" y1="39.5" x2="480.0" y2="64.0" style="stroke:black; stroke-width:1px;" />
<line x1="480.0" y1="71.5" x2="480.0" y2="96.0" style="stroke:black; stroke-width:1px;" />
<line x1="266.5" y1="7.5" x2="499.75" y2="32.0" style="stroke:black; stroke-width:1px;" />
<rect x="0.0" y="64.0" width="20.0" height="15.0" style="fill:orange; stroke:rgb(0,0,0);" rx="1"/>
<text x="2" y="73" style="font-family:sans-serif;font-size:10px;">
var
</text>
<rect x="318.25" y="96.0" width="22.0" height="15.0" style="fill:orange; stroke:rgb(0,0,0);" rx="1"/>
<text x="320" y="105" style="font-family:sans-serif;font-size:10px;">
end
</text>
<rect x="377.0" y="64.0" width="10.0" height="15.0" style="fill:orange; stroke:rgb(0,0,0);" rx="1"/>
<text x="379" y="73" style="font-family:sans-serif;font-size:10px;">
=
</text>
<rect x="21.25" y="32.0" width="24.0" height="15.0" style="fill:orange; stroke:rgb(0,0,0);" rx="1"/>
<text x="23" y="41" style="font-family:sans-serif;font-size:10px;">
decl
</text>
<rect x="286.75" y="192.0" width="26.0" height="15.0" style="fill:orange; stroke:rgb(0,0,0);" rx="1"/>
<text x="288" y="201" style="font-family:sans-serif;font-size:10px;">
expr
</text>
<rect x="427.0" y="64.0" width="33.0" height="15.0" style="fill:orange; stroke:rgb(0,0,0);" rx="1"/>
<text x="429" y="73" style="font-family:sans-serif;font-size:10px;">
return
</text>
<rect x="76.0" y="64.0" width="20.0" height="15.0" style="fill:orange; stroke:rgb(0,0,0);" rx="1"/>
<text x="78" y="73" style="font-family:sans-serif;font-size:10px;">
var
</text>
<rect x="201.75" y="128.0" width="26.0" height="15.0" style="fill:orange; stroke:rgb(0,0,0);" rx="1"/>
<text x="203" y="137" style="font-family:sans-serif;font-size:10px;">
expr
</text>
<rect x="265.75" y="192.0" width="14.0" height="15.0" style="fill:orange; stroke:rgb(0,0,0);" rx="1"/>
<text x="267" y="201" style="font-family:sans-serif;font-size:10px;">
r1
</text>
<rect x="44.0" y="64.0" width="25.0" height="15.0" style="fill:orange; stroke:rgb(0,0,0);" rx="1"/>
<text x="46" y="73" style="font-family:sans-serif;font-size:10px;">
Real
</text>
<rect x="343.75" y="224.0" width="8.0" height="15.0" style="fill:orange; stroke:rgb(0,0,0);" rx="1"/>
<text x="345" y="233" style="font-family:sans-serif;font-size:10px;">
r
</text>
<rect x="370.0" y="96.0" width="26.0" height="15.0" style="fill:orange; stroke:rgb(0,0,0);" rx="1"/>
<text x="372" y="105" style="font-family:sans-serif;font-size:10px;">
expr
</text>
<rect x="285.25" y="96.0" width="26.0" height="15.0" style="fill:orange; stroke:rgb(0,0,0);" rx="1"/>
<text x="287" y="105" style="font-family:sans-serif;font-size:10px;">
expr
</text>
<rect x="285.25" y="128.0" width="26.0" height="15.0" style="fill:orange; stroke:rgb(0,0,0);" rx="1"/>
<text x="287" y="137" style="font-family:sans-serif;font-size:10px;">
expr
</text>
<rect x="27.0" y="64.0" width="10.0" height="15.0" style="fill:orange; stroke:rgb(0,0,0);" rx="1"/>
<text x="29" y="73" style="font-family:sans-serif;font-size:10px;">
p
</text>
<rect x="186.75" y="128.0" width="8.0" height="15.0" style="fill:orange; stroke:rgb(0,0,0);" rx="1"/>
<text x="188" y="137" style="font-family:sans-serif;font-size:10px;">
(
</text>
<rect x="184.75" y="96.0" width="10.0" height="15.0" style="fill:orange; stroke:rgb(0,0,0);" rx="1"/>
<text x="186" y="105" style="font-family:sans-serif;font-size:10px;">
if
</text>
<rect x="324.0" y="64.0" width="25.0" height="15.0" style="fill:orange; stroke:rgb(0,0,0);" rx="1"/>
<text x="326" y="73" style="font-family:sans-serif;font-size:10px;">
3.14
</text>
<rect x="448.75" y="32.0" width="26.0" height="15.0" style="fill:orange; stroke:rgb(0,0,0);" rx="1"/>
<text x="450" y="41" style="font-family:sans-serif;font-size:10px;">
expr
</text>
<rect x="99.25" y="32.0" width="24.0" height="15.0" style="fill:orange; stroke:rgb(0,0,0);" rx="1"/>
<text x="101" y="41" style="font-family:sans-serif;font-size:10px;">
decl
</text>
<rect x="204.0" y="64.0" width="25.0" height="15.0" style="fill:orange; stroke:rgb(0,0,0);" rx="1"/>
<text x="206" y="73" style="font-family:sans-serif;font-size:10px;">
Real
</text>
<rect x="234.75" y="128.0" width="8.0" height="15.0" style="fill:orange; stroke:rgb(0,0,0);" rx="1"/>
<text x="236" y="137" style="font-family:sans-serif;font-size:10px;">
)
</text>
<rect x="310.75" y="160.0" width="26.0" height="15.0" style="fill:orange; stroke:rgb(0,0,0);" rx="1"/>
<text x="312" y="169" style="font-family:sans-serif;font-size:10px;">
expr
</text>
<rect x="467.0" y="64.0" width="26.0" height="15.0" style="fill:orange; stroke:rgb(0,0,0);" rx="1"/>
<text x="469" y="73" style="font-family:sans-serif;font-size:10px;">
expr
</text>
<rect x="424.0" y="128.0" width="14.0" height="15.0" style="fill:orange; stroke:rgb(0,0,0);" rx="1"/>
<text x="426" y="137" style="font-family:sans-serif;font-size:10px;">
r1
</text>
<rect x="179.25" y="32.0" width="24.0" height="15.0" style="fill:orange; stroke:rgb(0,0,0);" rx="1"/>
<text x="181" y="41" style="font-family:sans-serif;font-size:10px;">
decl
</text>
<rect x="293.25" y="160.0" width="10.0" height="15.0" style="fill:orange; stroke:rgb(0,0,0);" rx="1"/>
<text x="295" y="169" style="font-family:sans-serif;font-size:10px;">
=
</text>
<rect x="234.75" y="192.0" width="10.0" height="15.0" style="fill:orange; stroke:rgb(0,0,0);" rx="1"/>
<text x="236" y="201" style="font-family:sans-serif;font-size:10px;">
0
</text>
<rect x="418.0" y="96.0" width="26.0" height="15.0" style="fill:orange; stroke:rgb(0,0,0);" rx="1"/>
<text x="420" y="105" style="font-family:sans-serif;font-size:10px;">
expr
</text>
<rect x="176.75" y="160.0" width="26.0" height="15.0" style="fill:orange; stroke:rgb(0,0,0);" rx="1"/>
<text x="178" y="169" style="font-family:sans-serif;font-size:10px;">
expr
</text>
<rect x="259.75" y="160.0" width="26.0" height="15.0" style="fill:orange; stroke:rgb(0,0,0);" rx="1"/>
<text x="261" y="169" style="font-family:sans-serif;font-size:10px;">
expr
</text>
<rect x="185.75" y="192.0" width="8.0" height="15.0" style="fill:orange; stroke:rgb(0,0,0);" rx="1"/>
<text x="187" y="201" style="font-family:sans-serif;font-size:10px;">
r
</text>
<rect x="103.0" y="64.0" width="14.0" height="15.0" style="fill:orange; stroke:rgb(0,0,0);" rx="1"/>
<text x="105" y="73" style="font-family:sans-serif;font-size:10px;">
r1
</text>
<rect x="226.75" y="160.0" width="26.0" height="15.0" style="fill:orange; stroke:rgb(0,0,0);" rx="1"/>
<text x="228" y="169" style="font-family:sans-serif;font-size:10px;">
expr
</text>
<rect x="318.25" y="128.0" width="8.0" height="15.0" style="fill:orange; stroke:rgb(0,0,0);" rx="1"/>
<text x="320" y="137" style="font-family:sans-serif;font-size:10px;">
)
</text>
<rect x="334.75" y="192.0" width="26.0" height="15.0" style="fill:orange; stroke:rgb(0,0,0);" rx="1"/>
<text x="336" y="201" style="font-family:sans-serif;font-size:10px;">
expr
</text>
<rect x="156.0" y="64.0" width="20.0" height="15.0" style="fill:orange; stroke:rgb(0,0,0);" rx="1"/>
<text x="158" y="73" style="font-family:sans-serif;font-size:10px;">
var
</text>
<rect x="319.75" y="192.0" width="8.0" height="15.0" style="fill:orange; stroke:rgb(0,0,0);" rx="1"/>
<text x="321" y="201" style="font-family:sans-serif;font-size:10px;">
*
</text>
<rect x="209.75" y="160.0" width="10.0" height="15.0" style="fill:orange; stroke:rgb(0,0,0);" rx="1"/>
<text x="211" y="169" style="font-family:sans-serif;font-size:10px;">
&gt;
</text>
<rect x="244.0" y="96.0" width="25.0" height="15.0" style="fill:orange; stroke:rgb(0,0,0);" rx="1"/>
<text x="246" y="105" style="font-family:sans-serif;font-size:10px;">
then
</text>
<rect x="378.0" y="128.0" width="10.0" height="15.0" style="fill:orange; stroke:rgb(0,0,0);" rx="1"/>
<text x="380" y="137" style="font-family:sans-serif;font-size:10px;">
p
</text>
<rect x="183.0" y="64.0" width="14.0" height="15.0" style="fill:orange; stroke:rgb(0,0,0);" rx="1"/>
<text x="185" y="73" style="font-family:sans-serif;font-size:10px;">
r2
</text>
<rect x="356.0" y="64.0" width="14.0" height="15.0" style="fill:orange; stroke:rgb(0,0,0);" rx="1"/>
<text x="358" y="73" style="font-family:sans-serif;font-size:10px;">
r2
</text>
<rect x="367.0" y="32.0" width="36.0" height="15.0" style="fill:orange; stroke:rgb(0,0,0);" rx="1"/>
<text x="369" y="41" style="font-family:sans-serif;font-size:10px;">
assign
</text>
<rect x="124.0" y="64.0" width="25.0" height="15.0" style="fill:orange; stroke:rgb(0,0,0);" rx="1"/>
<text x="126" y="73" style="font-family:sans-serif;font-size:10px;">
Real
</text>
<rect x="473.0" y="96.0" width="14.0" height="15.0" style="fill:orange; stroke:rgb(0,0,0);" rx="1"/>
<text x="475" y="105" style="font-family:sans-serif;font-size:10px;">
r2
</text>
<rect x="394.0" y="64.0" width="26.0" height="15.0" style="fill:orange; stroke:rgb(0,0,0);" rx="1"/>
<text x="396" y="73" style="font-family:sans-serif;font-size:10px;">
expr
</text>
<rect x="236.0" y="64.0" width="47.0" height="15.0" style="fill:orange; stroke:rgb(0,0,0);" rx="1"/>
<text x="238" y="73" style="font-family:sans-serif;font-size:10px;">
condition
</text>
<rect x="290.0" y="64.0" width="10.0" height="15.0" style="fill:orange; stroke:rgb(0,0,0);" rx="1"/>
<text x="292" y="73" style="font-family:sans-serif;font-size:10px;">
p
</text>
<rect x="253.5" y="0.0" width="26.0" height="15.0" style="fill:orange; stroke:rgb(0,0,0);" rx="1"/>
<text x="255" y="9" style="font-family:sans-serif;font-size:10px;">
prog
</text>
<rect x="201.75" y="96.0" width="26.0" height="15.0" style="fill:orange; stroke:rgb(0,0,0);" rx="1"/>
<text x="203" y="105" style="font-family:sans-serif;font-size:10px;">
expr
</text>
<rect x="270.25" y="128.0" width="8.0" height="15.0" style="fill:orange; stroke:rgb(0,0,0);" rx="1"/>
<text x="272" y="137" style="font-family:sans-serif;font-size:10px;">
(
</text>
<rect x="246.5" y="32.0" width="26.0" height="15.0" style="fill:orange; stroke:rgb(0,0,0);" rx="1"/>
<text x="248" y="41" style="font-family:sans-serif;font-size:10px;">
expr
</text>
<rect x="297.75" y="32.0" width="36.0" height="15.0" style="fill:orange; stroke:rgb(0,0,0);" rx="1"/>
<text x="299" y="41" style="font-family:sans-serif;font-size:10px;">
assign
</text>
<rect x="307.0" y="64.0" width="10.0" height="15.0" style="fill:orange; stroke:rgb(0,0,0);" rx="1"/>
<text x="309" y="73" style="font-family:sans-serif;font-size:10px;">
=
</text>
<rect x="481.75" y="32.0" width="36.0" height="15.0" style="fill:orange; stroke:rgb(0,0,0);" rx="1"/>
<text x="483" y="41" style="font-family:sans-serif;font-size:10px;">
&lt;EOF&gt;
</text>
<rect x="295.75" y="224.0" width="8.0" height="15.0" style="fill:orange; stroke:rgb(0,0,0);" rx="1"/>
<text x="297" y="233" style="font-family:sans-serif;font-size:10px;">
r
</text>
<rect x="403.0" y="96.0" width="8.0" height="15.0" style="fill:orange; stroke:rgb(0,0,0);" rx="1"/>
<text x="405" y="105" style="font-family:sans-serif;font-size:10px;">
*
</text>
</svg>