<svg width="1557.6000000000001" height="627.0" xmlns="http://www.w3.org/2000/svg" xmlns:xlink="http://www.w3.org/1999/xlink"><line x1="249.625" y1="7.5" x2="30.75" y2="32.0" style="stroke:black; stroke-width:1px;" />
<line x1="30.75" y1="39.5" x2="10.0" y2="64.0" style="stroke:black; stroke-width:1px;" />
<line x1="30.75" y1="39.5" x2="32.0" y2="64.0" style="stroke:black; stroke-width:1px;" />
<line x1="30.75" y1="39.5" x2="51.5" y2="64.0" style="stroke:black; stroke-width:1px;" />
<line x1="249.625" y1="7.5" x2="98.75" y2="32.0" style="stroke:black; stroke-width:1px;" />
<line x1="98.75" y1="39.5" x2="76.0" y2="64.0" style="stroke:black; stroke-width:1px;" />
<line x1="98.75" y1="39.5" x2="100.0" y2="64.0" style="stroke:black; stroke-width:1px;" />
<line x1="98.75" y1="39.5" x2="121.5" y2="64.0" style="stroke:black; stroke-width:1px;" />
<line x1="249.625" y1="7.5" x2="168.75" y2="32.0" style="stroke:black; stroke-width:1px;" />
<line x1="168.75" y1="39.5" x2="146.0" y2="64.0" style="stroke:black; stroke-width:1px;" />
<line x1="168.75" y1="39.5" x2="170.0" y2="64.0" style="stroke:black; stroke-width:1px;" />
<line x1="168.75" y1="39.5" x2="191.5" y2="64.0" style="stroke:black; stroke-width:1px;" />
<line x1="249.625" y1="7.5" x2="258.625" y2="32.0" style="stroke:black; stroke-width:1px;" />
<line x1="258.625" y1="39.5" x2="211.0" y2="64.0" style="stroke:black; stroke-width:1px;" />
<line x1="258.625" y1="39.5" x2="235.0" y2="64.0" style="stroke:black; stroke-width:1px;" />
<line x1="235.0" y1="71.5" x2="211.0" y2="96.0" style="stroke:black; stroke-width:1px;" />
<line x1="211.0" y1="103.5" x2="211.0" y2="128.0" style="stroke:black; stroke-width:1px;" />
<line x1="211.0" y1="135.5" x2="211.0" y2="160.0" style="stroke:black; stroke-width:1px;" />
<line x1="235.0" y1="71.5" x2="235.0" y2="96.0" style="stroke:black; stroke-width:1px;" />
<line x1="235.0" y1="71.5" x2="259.0" y2="96.0" style="stroke:black; stroke-width:1px;" />
<line x1="259.0" y1="103.5" x2="259.0" y2="128.0" style="stroke:black; stroke-width:1px;" />
<line x1="259.0" y1="135.5" x2="259.0" y2="160.0" style="stroke:black; stroke-width:1px;" />
<line x1="258.625" y1="39.5" x2="267.625" y2="64.0" style="stroke:black; stroke-width:1px;" />
<line x1="258.625" y1="39.5" x2="306.25" y2="64.0" style="stroke:black; stroke-width:1px;" />
<line x1="306.25" y1="71.5" x2="285.0" y2="96.0" style="stroke:black; stroke-width:1px;" />
<line x1="306.25" y1="71.5" x2="304.0" y2="96.0" style="stroke:black; stroke-width:1px;" />
<line x1="306.25" y1="71.5" x2="327.5" y2="96.0" style="stroke:black; stroke-width:1px;" />
<line x1="327.5" y1="103.5" x2="305.0" y2="128.0" style="stroke:black; stroke-width:1px;" />
<line x1="305.0" y1="135.5" x2="305.0" y2="160.0" style="stroke:black; stroke-width:1px;" />
<line x1="327.5" y1="103.5" x2="327.5" y2="128.0" style="stroke:black; stroke-width:1px;" />
<line x1="327.5" y1="103.5" x2="350.0" y2="128.0" style="stroke:black; stroke-width:1px;" />
<line x1="350.0" y1="135.5" x2="350.0" y2="160.0" style="stroke:black; stroke-width:1px;" />
<line x1="249.625" y1="7.5" x2="357.0" y2="32.0" style="stroke:black; stroke-width:1px;" />
<line x1="357.0" y1="39.5" x2="336.25" y2="64.0" style="stroke:black; stroke-width:1px;" />
<line x1="357.0" y1="39.5" x2="353.25" y2="64.0" style="stroke:black; stroke-width:1px;" />
<line x1="357.0" y1="39.5" x2="377.75" y2="64.0" style="stroke:black; stroke-width:1px;" />
<line x1="249.625" y1="7.5" x2="425.5" y2="32.0" style="stroke:black; stroke-width:1px;" />
<line x1="425.5" y1="39.5" x2="404.25" y2="64.0" style="stroke:black; stroke-width:1px;" />
<line x1="425.5" y1="39.5" x2="423.25" y2="64.0" style="stroke:black; stroke-width:1px;" />
<line x1="425.5" y1="39.5" x2="446.75" y2="64.0" style="stroke:black; stroke-width:1px;" />
<line x1="446.75" y1="71.5" x2="423.25" y2="96.0" style="stroke:black; stroke-width:1px;" />
<line x1="423.25" y1="103.5" x2="423.25" y2="128.0" style="stroke:black; stroke-width:1px;" />
<line x1="446.75" y1="71.5" x2="446.75" y2="96.0" style="stroke:black; stroke-width:1px;" />
<line x1="446.75" y1="71.5" x2="470.25" y2="96.0" style="stroke:black; stroke-width:1px;" />
<line x1="470.25" y1="103.5" x2="470.25" y2="128.0" style="stroke:black; stroke-width:1px;" />
<line x1="249.625" y1="7.5" x2="468.5" y2="32.0" style="stroke:black; stroke-width:1px;" />
<rect x="206.0" y="64.0" width="10.0" height="15.0" style="fill:orange; stroke:rgb(0,0,0);" rx="1"/>
<text x="208" y="73" style="font-family:sans-serif;font-size:10px;">
if
</text>
<rect x="207.0" y="160.0" width="8.0" height="15.0" style="fill:orange; stroke:rgb(0,0,0);" rx="1"/>
<text x="209" y="169" style="font-family:sans-serif;font-size:10px;">
r
</text>
<rect x="323.5" y="128.0" width="8.0" height="15.0" style="fill:orange; stroke:rgb(0,0,0);" rx="1"/>
<text x="325" y="137" style="font-family:sans-serif;font-size:10px;">
*
</text>
<rect x="0.0" y="64.0" width="20.0" height="15.0" style="fill:orange; stroke:rgb(0,0,0);" rx="1"/>
<text x="2" y="73" style="font-family:sans-serif;font-size:10px;">
var
</text>
<rect x="450.5" y="32.0" width="36.0" height="15.0" style="fill:orange; stroke:rgb(0,0,0);" rx="1"/>
<text x="452" y="41" style="font-family:sans-serif;font-size:10px;">
&lt;EOF&gt;
</text>
<rect x="230.0" y="96.0" width="10.0" height="15.0" style="fill:orange; stroke:rgb(0,0,0);" rx="1"/>
<text x="232" y="105" style="font-family:sans-serif;font-size:10px;">
&gt;
</text>
<rect x="365.25" y="64.0" width="25.0" height="15.0" style="fill:orange; stroke:rgb(0,0,0);" rx="1"/>
<text x="367" y="73" style="font-family:sans-serif;font-size:10px;">
3.14
</text>
<rect x="199.0" y="96.0" width="24.0" height="15.0" style="fill:orange; stroke:rgb(0,0,0);" rx="1"/>
<text x="201" y="105" style="font-family:sans-serif;font-size:10px;">
bool
</text>
<rect x="27.0" y="64.0" width="10.0" height="15.0" style="fill:orange; stroke:rgb(0,0,0);" rx="1"/>
<text x="29" y="73" style="font-family:sans-serif;font-size:10px;">
p
</text>
<rect x="254.0" y="160.0" width="10.0" height="15.0" style="fill:orange; stroke:rgb(0,0,0);" rx="1"/>
<text x="256" y="169" style="font-family:sans-serif;font-size:10px;">
0
</text>
<rect x="236.625" y="0.0" width="26.0" height="15.0" style="fill:orange; stroke:rgb(0,0,0);" rx="1"/>
<text x="238" y="9" style="font-family:sans-serif;font-size:10px;">
prog
</text>
<rect x="331.25" y="64.0" width="10.0" height="15.0" style="fill:orange; stroke:rgb(0,0,0);" rx="1"/>
<text x="333" y="73" style="font-family:sans-serif;font-size:10px;">
p
</text>
<rect x="463.25" y="128.0" width="14.0" height="15.0" style="fill:orange; stroke:rgb(0,0,0);" rx="1"/>
<text x="465" y="137" style="font-family:sans-serif;font-size:10px;">
r1
</text>
<rect x="435.25" y="64.0" width="23.0" height="15.0" style="fill:orange; stroke:rgb(0,0,0);" rx="1"/>
<text x="437" y="73" style="font-family:sans-serif;font-size:10px;">
arth
</text>
<rect x="411.75" y="96.0" width="23.0" height="15.0" style="fill:orange; stroke:rgb(0,0,0);" rx="1"/>
<text x="413" y="105" style="font-family:sans-serif;font-size:10px;">
arth
</text>
<rect x="293.5" y="128.0" width="23.0" height="15.0" style="fill:orange; stroke:rgb(0,0,0);" rx="1"/>
<text x="295" y="137" style="font-family:sans-serif;font-size:10px;">
arth
</text>
<rect x="18.75" y="32.0" width="24.0" height="15.0" style="fill:orange; stroke:rgb(0,0,0);" rx="1"/>
<text x="20" y="41" style="font-family:sans-serif;font-size:10px;">
decl
</text>
<rect x="93.0" y="64.0" width="14.0" height="15.0" style="fill:orange; stroke:rgb(0,0,0);" rx="1"/>
<text x="95" y="73" style="font-family:sans-serif;font-size:10px;">
r1
</text>
<rect x="255.125" y="64.0" width="25.0" height="15.0" style="fill:orange; stroke:rgb(0,0,0);" rx="1"/>
<text x="257" y="73" style="font-family:sans-serif;font-size:10px;">
then
</text>
<rect x="299.0" y="96.0" width="10.0" height="15.0" style="fill:orange; stroke:rgb(0,0,0);" rx="1"/>
<text x="301" y="105" style="font-family:sans-serif;font-size:10px;">
=
</text>
<rect x="338.5" y="128.0" width="23.0" height="15.0" style="fill:orange; stroke:rgb(0,0,0);" rx="1"/>
<text x="340" y="137" style="font-family:sans-serif;font-size:10px;">
arth
</text>
<rect x="419.25" y="128.0" width="8.0" height="15.0" style="fill:orange; stroke:rgb(0,0,0);" rx="1"/>
<text x="421" y="137" style="font-family:sans-serif;font-size:10px;">
r
</text>
<rect x="223.0" y="64.0" width="24.0" height="15.0" style="fill:orange; stroke:rgb(0,0,0);" rx="1"/>
<text x="225" y="73" style="font-family:sans-serif;font-size:10px;">
bool
</text>
<rect x="418.25" y="64.0" width="10.0" height="15.0" style="fill:orange; stroke:rgb(0,0,0);" rx="1"/>
<text x="420" y="73" style="font-family:sans-serif;font-size:10px;">
=
</text>
<rect x="407.5" y="32.0" width="36.0" height="15.0" style="fill:orange; stroke:rgb(0,0,0);" rx="1"/>
<text x="409" y="41" style="font-family:sans-serif;font-size:10px;">
assign
</text>
<rect x="397.25" y="64.0" width="14.0" height="15.0" style="fill:orange; stroke:rgb(0,0,0);" rx="1"/>
<text x="399" y="73" style="font-family:sans-serif;font-size:10px;">
r2
</text>
<rect x="163.0" y="64.0" width="14.0" height="15.0" style="fill:orange; stroke:rgb(0,0,0);" rx="1"/>
<text x="165" y="73" style="font-family:sans-serif;font-size:10px;">
r2
</text>
<rect x="199.5" y="128.0" width="23.0" height="15.0" style="fill:orange; stroke:rgb(0,0,0);" rx="1"/>
<text x="201" y="137" style="font-family:sans-serif;font-size:10px;">
arth
</text>
<rect x="278.0" y="96.0" width="14.0" height="15.0" style="fill:orange; stroke:rgb(0,0,0);" rx="1"/>
<text x="280" y="105" style="font-family:sans-serif;font-size:10px;">
r1
</text>
<rect x="86.75" y="32.0" width="24.0" height="15.0" style="fill:orange; stroke:rgb(0,0,0);" rx="1"/>
<text x="88" y="41" style="font-family:sans-serif;font-size:10px;">
decl
</text>
<rect x="114.0" y="64.0" width="15.0" height="15.0" style="fill:orange; stroke:rgb(0,0,0);" rx="1"/>
<text x="116" y="73" style="font-family:sans-serif;font-size:10px;">
Int
</text>
<rect x="339.0" y="32.0" width="36.0" height="15.0" style="fill:orange; stroke:rgb(0,0,0);" rx="1"/>
<text x="341" y="41" style="font-family:sans-serif;font-size:10px;">
assign
</text>
<rect x="348.25" y="64.0" width="10.0" height="15.0" style="fill:orange; stroke:rgb(0,0,0);" rx="1"/>
<text x="350" y="73" style="font-family:sans-serif;font-size:10px;">
=
</text>
<rect x="136.0" y="64.0" width="20.0" height="15.0" style="fill:orange; stroke:rgb(0,0,0);" rx="1"/>
<text x="138" y="73" style="font-family:sans-serif;font-size:10px;">
var
</text>
<rect x="156.75" y="32.0" width="24.0" height="15.0" style="fill:orange; stroke:rgb(0,0,0);" rx="1"/>
<text x="158" y="41" style="font-family:sans-serif;font-size:10px;">
decl
</text>
<rect x="288.25" y="64.0" width="36.0" height="15.0" style="fill:orange; stroke:rgb(0,0,0);" rx="1"/>
<text x="290" y="73" style="font-family:sans-serif;font-size:10px;">
assign
</text>
<rect x="441.75" y="96.0" width="10.0" height="15.0" style="fill:orange; stroke:rgb(0,0,0);" rx="1"/>
<text x="443" y="105" style="font-family:sans-serif;font-size:10px;">
+
</text>
<rect x="44.0" y="64.0" width="15.0" height="15.0" style="fill:orange; stroke:rgb(0,0,0);" rx="1"/>
<text x="46" y="73" style="font-family:sans-serif;font-size:10px;">
Int
</text>
<rect x="458.75" y="96.0" width="23.0" height="15.0" style="fill:orange; stroke:rgb(0,0,0);" rx="1"/>
<text x="460" y="105" style="font-family:sans-serif;font-size:10px;">
arth
</text>
<rect x="316.0" y="96.0" width="23.0" height="15.0" style="fill:orange; stroke:rgb(0,0,0);" rx="1"/>
<text x="318" y="105" style="font-family:sans-serif;font-size:10px;">
arth
</text>
<rect x="247.0" y="96.0" width="24.0" height="15.0" style="fill:orange; stroke:rgb(0,0,0);" rx="1"/>
<text x="249" y="105" style="font-family:sans-serif;font-size:10px;">
bool
</text>
<rect x="346.0" y="160.0" width="8.0" height="15.0" style="fill:orange; stroke:rgb(0,0,0);" rx="1"/>
<text x="348" y="169" style="font-family:sans-serif;font-size:10px;">
r
</text>
<rect x="66.0" y="64.0" width="20.0" height="15.0" style="fill:orange; stroke:rgb(0,0,0);" rx="1"/>
<text x="68" y="73" style="font-family:sans-serif;font-size:10px;">
var
</text>
<rect x="184.0" y="64.0" width="15.0" height="15.0" style="fill:orange; stroke:rgb(0,0,0);" rx="1"/>
<text x="186" y="73" style="font-family:sans-serif;font-size:10px;">
Int
</text>
<rect x="247.5" y="128.0" width="23.0" height="15.0" style="fill:orange; stroke:rgb(0,0,0);" rx="1"/>
<text x="249" y="137" style="font-family:sans-serif;font-size:10px;">
arth
</text>
<rect x="301.0" y="160.0" width="8.0" height="15.0" style="fill:orange; stroke:rgb(0,0,0);" rx="1"/>
<text x="303" y="169" style="font-family:sans-serif;font-size:10px;">
r
</text>
<rect x="235.125" y="32.0" width="47.0" height="15.0" style="fill:orange; stroke:rgb(0,0,0);" rx="1"/>
<text x="237" y="41" style="font-family:sans-serif;font-size:10px;">
condition
</text>
</svg>