<svg width="1557.6000000000001" height="627.0" xmlns="http://www.w3.org/2000/svg" xmlns:xlink="http://www.w3.org/1999/xlink"><line x1="144.0" y1="7.5" x2="30.75" y2="32.0" style="stroke:black; stroke-width:1px;" />
<line x1="30.75" y1="39.5" x2="10.0" y2="64.0" style="stroke:black; stroke-width:1px;" />
<line x1="30.75" y1="39.5" x2="32.0" y2="64.0" style="stroke:black; stroke-width:1px;" />
<line x1="30.75" y1="39.5" x2="51.5" y2="64.0" style="stroke:black; stroke-width:1px;" />
<line x1="144.0" y1="7.5" x2="89.5" y2="32.0" style="stroke:black; stroke-width:1px;" />
<line x1="89.5" y1="39.5" x2="71.0" y2="64.0" style="stroke:black; stroke-width:1px;" />
<line x1="89.5" y1="39.5" x2="88.0" y2="64.0" style="stroke:black; stroke-width:1px;" />
<line x1="89.5" y1="39.5" x2="108.0" y2="64.0" style="stroke:black; stroke-width:1px;" />
<line x1="144.0" y1="7.5" x2="153.75" y2="32.0" style="stroke:black; stroke-width:1px;" />
<line x1="153.75" y1="39.5" x2="133.0" y2="64.0" style="stroke:black; stroke-width:1px;" />
<line x1="153.75" y1="39.5" x2="155.0" y2="64.0" style="stroke:black; stroke-width:1px;" />
<line x1="153.75" y1="39.5" x2="174.5" y2="64.0" style="stroke:black; stroke-width:1px;" />
<line x1="144.0" y1="7.5" x2="214.25" y2="32.0" style="stroke:black; stroke-width:1px;" />
<line x1="214.25" y1="39.5" x2="194.0" y2="64.0" style="stroke:black; stroke-width:1px;" />
<line x1="214.25" y1="39.5" x2="211.0" y2="64.0" style="stroke:black; stroke-width:1px;" />
<line x1="214.25" y1="39.5" x2="234.5" y2="64.0" style="stroke:black; stroke-width:1px;" />
<line x1="234.5" y1="71.5" x2="211.0" y2="96.0" style="stroke:black; stroke-width:1px;" />
<line x1="211.0" y1="103.5" x2="211.0" y2="128.0" style="stroke:black; stroke-width:1px;" />
<line x1="234.5" y1="71.5" x2="234.5" y2="96.0" style="stroke:black; stroke-width:1px;" />
<line x1="234.5" y1="71.5" x2="258.0" y2="96.0" style="stroke:black; stroke-width:1px;" />
<line x1="258.0" y1="103.5" x2="258.0" y2="128.0" style="stroke:black; stroke-width:1px;" />
<line x1="144.0" y1="7.5" x2="257.25" y2="32.0" style="stroke:black; stroke-width:1px;" />
<rect x="239.25" y="32.0" width="36.0" height="15.0" style="fill:orange; stroke:rgb(0,0,0);" rx="1"/>
<text x="241" y="41" style="font-family:sans-serif;font-size:10px;">
&lt;EOF&gt;
</text>
<rect x="66.0" y="64.0" width="10.0" height="15.0" style="fill:orange; stroke:rgb(0,0,0);" rx="1"/>
<text x="68" y="73" style="font-family:sans-serif;font-size:10px;">
b
</text>
<rect x="18.75" y="32.0" width="24.0" height="15.0" style="fill:orange; stroke:rgb(0,0,0);" rx="1"/>
<text x="20" y="41" style="font-family:sans-serif;font-size:10px;">
decl
</text>
<rect x="83.0" y="64.0" width="10.0" height="15.0" style="fill:orange; stroke:rgb(0,0,0);" rx="1"/>
<text x="85" y="73" style="font-family:sans-serif;font-size:10px;">
=
</text>
<rect x="253.0" y="128.0" width="10.0" height="15.0" style="fill:orange; stroke:rgb(0,0,0);" rx="1"/>
<text x="255" y="137" style="font-family:sans-serif;font-size:10px;">
2
</text>
<rect x="206.0" y="64.0" width="10.0" height="15.0" style="fill:orange; stroke:rgb(0,0,0);" rx="1"/>
<text x="208" y="73" style="font-family:sans-serif;font-size:10px;">
=
</text>
<rect x="100.0" y="64.0" width="16.0" height="15.0" style="fill:orange; stroke:rgb(0,0,0);" rx="1"/>
<text x="102" y="73" style="font-family:sans-serif;font-size:10px;">
55
</text>
<rect x="123.0" y="64.0" width="20.0" height="15.0" style="fill:orange; stroke:rgb(0,0,0);" rx="1"/>
<text x="125" y="73" style="font-family:sans-serif;font-size:10px;">
var
</text>
<rect x="229.5" y="96.0" width="10.0" height="15.0" style="fill:orange; stroke:rgb(0,0,0);" rx="1"/>
<text x="231" y="105" style="font-family:sans-serif;font-size:10px;">
+
</text>
<rect x="246.5" y="96.0" width="23.0" height="15.0" style="fill:orange; stroke:rgb(0,0,0);" rx="1"/>
<text x="248" y="105" style="font-family:sans-serif;font-size:10px;">
arth
</text>
<rect x="27.0" y="64.0" width="10.0" height="15.0" style="fill:orange; stroke:rgb(0,0,0);" rx="1"/>
<text x="29" y="73" style="font-family:sans-serif;font-size:10px;">
b
</text>
<rect x="199.5" y="96.0" width="23.0" height="15.0" style="fill:orange; stroke:rgb(0,0,0);" rx="1"/>
<text x="201" y="105" style="font-family:sans-serif;font-size:10px;">
arth
</text>
<rect x="141.75" y="32.0" width="24.0" height="15.0" style="fill:orange; stroke:rgb(0,0,0);" rx="1"/>
<text x="143" y="41" style="font-family:sans-serif;font-size:10px;">
decl
</text>
<rect x="150.0" y="64.0" width="10.0" height="15.0" style="fill:orange; stroke:rgb(0,0,0);" rx="1"/>
<text x="152" y="73" style="font-family:sans-serif;font-size:10px;">
a
</text>
<rect x="206.0" y="128.0" width="10.0" height="15.0" style="fill:orange; stroke:rgb(0,0,0);" rx="1"/>
<text x="208" y="137" style="font-family:sans-serif;font-size:10px;">
5
</text>
<rect x="131.0" y="0.0" width="26.0" height="15.0" style="fill:orange; stroke:rgb(0,0,0);" rx="1"/>
<text x="133" y="9" style="font-family:sans-serif;font-size:10px;">
prog
</text>
<rect x="189.0" y="64.0" width="10.0" height="15.0" style="fill:orange; stroke:rgb(0,0,0);" rx="1"/>
<text x="191" y="73" style="font-family:sans-serif;font-size:10px;">
a
</text>
<rect x="71.5" y="32.0" width="36.0" height="15.0" style="fill:orange; stroke:rgb(0,0,0);" rx="1"/>
<text x="73" y="41" style="font-family:sans-serif;font-size:10px;">
assign
</text>
<rect x="196.25" y="32.0" width="36.0" height="15.0" style="fill:orange; stroke:rgb(0,0,0);" rx="1"/>
<text x="198" y="41" style="font-family:sans-serif;font-size:10px;">
assign
</text>
<rect x="167.0" y="64.0" width="15.0" height="15.0" style="fill:orange; stroke:rgb(0,0,0);" rx="1"/>
<text x="169" y="73" style="font-family:sans-serif;font-size:10px;">
Int
</text>
<rect x="44.0" y="64.0" width="15.0" height="15.0" style="fill:orange; stroke:rgb(0,0,0);" rx="1"/>
<text x="46" y="73" style="font-family:sans-serif;font-size:10px;">
Int
</text>
<rect x="0.0" y="64.0" width="20.0" height="15.0" style="fill:orange; stroke:rgb(0,0,0);" rx="1"/>
<text x="2" y="73" style="font-family:sans-serif;font-size:10px;">
var
</text>
<rect x="223.0" y="64.0" width="23.0" height="15.0" style="fill:orange; stroke:rgb(0,0,0);" rx="1"/>
<text x="225" y="73" style="font-family:sans-serif;font-size:10px;">
arth
</text>
</svg>