<svg width="1557.6000000000001" height="627.0" xmlns="http://www.w3.org/2000/svg" xmlns:xlink="http://www.w3.org/1999/xlink"><line x1="285.75" y1="7.5" x2="30.75" y2="32.0" style="stroke:black; stroke-width:1px;" />
<line x1="30.75" y1="39.5" x2="10.0" y2="64.0" style="stroke:black; stroke-width:1px;" />
<line x1="30.75" y1="39.5" x2="32.0" y2="64.0" style="stroke:black; stroke-width:1px;" />
<line x1="30.75" y1="39.5" x2="51.5" y2="64.0" style="stroke:black; stroke-width:1px;" />
<line x1="285.75" y1="7.5" x2="96.75" y2="32.0" style="stroke:black; stroke-width:1px;" />
<line x1="96.75" y1="39.5" x2="76.0" y2="64.0" style="stroke:black; stroke-width:1px;" />
<line x1="96.75" y1="39.5" x2="98.0" y2="64.0" style="stroke:black; stroke-width:1px;" />
<line x1="96.75" y1="39.5" x2="117.5" y2="64.0" style="stroke:black; stroke-width:1px;" />
<line x1="285.75" y1="7.5" x2="162.75" y2="32.0" style="stroke:black; stroke-width:1px;" />
<line x1="162.75" y1="39.5" x2="142.0" y2="64.0" style="stroke:black; stroke-width:1px;" />
<line x1="162.75" y1="39.5" x2="164.0" y2="64.0" style="stroke:black; stroke-width:1px;" />
<line x1="162.75" y1="39.5" x2="183.5" y2="64.0" style="stroke:black; stroke-width:1px;" />
<line x1="285.75" y1="7.5" x2="231.25" y2="32.0" style="stroke:black; stroke-width:1px;" />
<line x1="231.25" y1="39.5" x2="208.0" y2="64.0" style="stroke:black; stroke-width:1px;" />
<line x1="231.25" y1="39.5" x2="230.0" y2="64.0" style="stroke:black; stroke-width:1px;" />
<line x1="231.25" y1="39.5" x2="254.5" y2="64.0" style="stroke:black; stroke-width:1px;" />
<line x1="285.75" y1="7.5" x2="307.25" y2="32.0" style="stroke:black; stroke-width:1px;" />
<line x1="307.25" y1="39.5" x2="284.0" y2="64.0" style="stroke:black; stroke-width:1px;" />
<line x1="307.25" y1="39.5" x2="306.0" y2="64.0" style="stroke:black; stroke-width:1px;" />
<line x1="307.25" y1="39.5" x2="330.5" y2="64.0" style="stroke:black; stroke-width:1px;" />
<line x1="285.75" y1="7.5" x2="372.0" y2="32.0" style="stroke:black; stroke-width:1px;" />
<line x1="372.0" y1="39.5" x2="355.0" y2="64.0" style="stroke:black; stroke-width:1px;" />
<line x1="372.0" y1="39.5" x2="372.0" y2="64.0" style="stroke:black; stroke-width:1px;" />
<line x1="372.0" y1="39.5" x2="389.0" y2="64.0" style="stroke:black; stroke-width:1px;" />
<line x1="285.75" y1="7.5" x2="427.0" y2="32.0" style="stroke:black; stroke-width:1px;" />
<line x1="427.0" y1="39.5" x2="406.0" y2="64.0" style="stroke:black; stroke-width:1px;" />
<line x1="427.0" y1="39.5" x2="423.0" y2="64.0" style="stroke:black; stroke-width:1px;" />
<line x1="427.0" y1="39.5" x2="448.0" y2="64.0" style="stroke:black; stroke-width:1px;" />
<line x1="448.0" y1="71.5" x2="423.0" y2="96.0" style="stroke:black; stroke-width:1px;" />
<line x1="423.0" y1="103.5" x2="399.0" y2="128.0" style="stroke:black; stroke-width:1px;" />
<line x1="423.0" y1="103.5" x2="423.0" y2="128.0" style="stroke:black; stroke-width:1px;" />
<line x1="423.0" y1="135.5" x2="403.75" y2="160.0" style="stroke:black; stroke-width:1px;" />
<line x1="423.0" y1="135.5" x2="442.25" y2="160.0" style="stroke:black; stroke-width:1px;" />
<line x1="442.25" y1="167.5" x2="442.25" y2="192.0" style="stroke:black; stroke-width:1px;" />
<line x1="423.0" y1="103.5" x2="447.0" y2="128.0" style="stroke:black; stroke-width:1px;" />
<line x1="448.0" y1="71.5" x2="448.0" y2="96.0" style="stroke:black; stroke-width:1px;" />
<line x1="448.0" y1="71.5" x2="473.0" y2="96.0" style="stroke:black; stroke-width:1px;" />
<line x1="473.0" y1="103.5" x2="473.0" y2="128.0" style="stroke:black; stroke-width:1px;" />
<line x1="285.75" y1="7.5" x2="502.75" y2="32.0" style="stroke:black; stroke-width:1px;" />
<line x1="502.75" y1="39.5" x2="484.5" y2="64.0" style="stroke:black; stroke-width:1px;" />
<line x1="502.75" y1="39.5" x2="521.0" y2="64.0" style="stroke:black; stroke-width:1px;" />
<line x1="521.0" y1="71.5" x2="521.0" y2="96.0" style="stroke:black; stroke-width:1px;" />
<line x1="285.75" y1="7.5" x2="540.75" y2="32.0" style="stroke:black; stroke-width:1px;" />
<rect x="27.0" y="64.0" width="10.0" height="15.0" style="fill:orange; stroke:rgb(0,0,0);" rx="1"/>
<text x="29" y="73" style="font-family:sans-serif;font-size:10px;">
a
</text>
<rect x="522.75" y="32.0" width="36.0" height="15.0" style="fill:orange; stroke:rgb(0,0,0);" rx="1"/>
<text x="524" y="41" style="font-family:sans-serif;font-size:10px;">
&lt;EOF&gt;
</text>
<rect x="385.25" y="160.0" width="37.0" height="15.0" style="fill:orange; stroke:rgb(0,0,0);" rx="1"/>
<text x="387" y="169" style="font-family:sans-serif;font-size:10px;">
to_real
</text>
<rect x="443.0" y="96.0" width="10.0" height="15.0" style="fill:orange; stroke:rgb(0,0,0);" rx="1"/>
<text x="445" y="105" style="font-family:sans-serif;font-size:10px;">
+
</text>
<rect x="66.0" y="64.0" width="20.0" height="15.0" style="fill:orange; stroke:rgb(0,0,0);" rx="1"/>
<text x="68" y="73" style="font-family:sans-serif;font-size:10px;">
var
</text>
<rect x="318.0" y="64.0" width="25.0" height="15.0" style="fill:orange; stroke:rgb(0,0,0);" rx="1"/>
<text x="320" y="73" style="font-family:sans-serif;font-size:10px;">
Real
</text>
<rect x="489.75" y="32.0" width="26.0" height="15.0" style="fill:orange; stroke:rgb(0,0,0);" rx="1"/>
<text x="491" y="41" style="font-family:sans-serif;font-size:10px;">
expr
</text>
<rect x="350.0" y="64.0" width="10.0" height="15.0" style="fill:orange; stroke:rgb(0,0,0);" rx="1"/>
<text x="352" y="73" style="font-family:sans-serif;font-size:10px;">
c
</text>
<rect x="274.0" y="64.0" width="20.0" height="15.0" style="fill:orange; stroke:rgb(0,0,0);" rx="1"/>
<text x="276" y="73" style="font-family:sans-serif;font-size:10px;">
var
</text>
<rect x="272.75" y="0.0" width="26.0" height="15.0" style="fill:orange; stroke:rgb(0,0,0);" rx="1"/>
<text x="274" y="9" style="font-family:sans-serif;font-size:10px;">
prog
</text>
<rect x="301.0" y="64.0" width="10.0" height="15.0" style="fill:orange; stroke:rgb(0,0,0);" rx="1"/>
<text x="303" y="73" style="font-family:sans-serif;font-size:10px;">
e
</text>
<rect x="463.5" y="128.0" width="19.0" height="15.0" style="fill:orange; stroke:rgb(0,0,0);" rx="1"/>
<text x="465" y="137" style="font-family:sans-serif;font-size:10px;">
0.5
</text>
<rect x="295.25" y="32.0" width="24.0" height="15.0" style="fill:orange; stroke:rgb(0,0,0);" rx="1"/>
<text x="297" y="41" style="font-family:sans-serif;font-size:10px;">
decl
</text>
<rect x="150.75" y="32.0" width="24.0" height="15.0" style="fill:orange; stroke:rgb(0,0,0);" rx="1"/>
<text x="152" y="41" style="font-family:sans-serif;font-size:10px;">
decl
</text>
<rect x="0.0" y="64.0" width="20.0" height="15.0" style="fill:orange; stroke:rgb(0,0,0);" rx="1"/>
<text x="2" y="73" style="font-family:sans-serif;font-size:10px;">
var
</text>
<rect x="198.0" y="64.0" width="20.0" height="15.0" style="fill:orange; stroke:rgb(0,0,0);" rx="1"/>
<text x="200" y="73" style="font-family:sans-serif;font-size:10px;">
var
</text>
<rect x="176.0" y="64.0" width="15.0" height="15.0" style="fill:orange; stroke:rgb(0,0,0);" rx="1"/>
<text x="178" y="73" style="font-family:sans-serif;font-size:10px;">
Int
</text>
<rect x="409.0" y="32.0" width="36.0" height="15.0" style="fill:orange; stroke:rgb(0,0,0);" rx="1"/>
<text x="411" y="41" style="font-family:sans-serif;font-size:10px;">
assign
</text>
<rect x="84.75" y="32.0" width="24.0" height="15.0" style="fill:orange; stroke:rgb(0,0,0);" rx="1"/>
<text x="86" y="41" style="font-family:sans-serif;font-size:10px;">
decl
</text>
<rect x="132.0" y="64.0" width="20.0" height="15.0" style="fill:orange; stroke:rgb(0,0,0);" rx="1"/>
<text x="134" y="73" style="font-family:sans-serif;font-size:10px;">
var
</text>
<rect x="159.0" y="64.0" width="10.0" height="15.0" style="fill:orange; stroke:rgb(0,0,0);" rx="1"/>
<text x="161" y="73" style="font-family:sans-serif;font-size:10px;">
c
</text>
<rect x="367.0" y="64.0" width="10.0" height="15.0" style="fill:orange; stroke:rgb(0,0,0);" rx="1"/>
<text x="369" y="73" style="font-family:sans-serif;font-size:10px;">
=
</text>
<rect x="508.0" y="64.0" width="26.0" height="15.0" style="fill:orange; stroke:rgb(0,0,0);" rx="1"/>
<text x="510" y="73" style="font-family:sans-serif;font-size:10px;">
expr
</text>
<rect x="93.0" y="64.0" width="10.0" height="15.0" style="fill:orange; stroke:rgb(0,0,0);" rx="1"/>
<text x="95" y="73" style="font-family:sans-serif;font-size:10px;">
b
</text>
<rect x="110.0" y="64.0" width="15.0" height="15.0" style="fill:orange; stroke:rgb(0,0,0);" rx="1"/>
<text x="112" y="73" style="font-family:sans-serif;font-size:10px;">
Int
</text>
<rect x="410.0" y="128.0" width="26.0" height="15.0" style="fill:orange; stroke:rgb(0,0,0);" rx="1"/>
<text x="412" y="137" style="font-family:sans-serif;font-size:10px;">
expr
</text>
<rect x="395.0" y="128.0" width="8.0" height="15.0" style="fill:orange; stroke:rgb(0,0,0);" rx="1"/>
<text x="397" y="137" style="font-family:sans-serif;font-size:10px;">
(
</text>
<rect x="435.0" y="64.0" width="26.0" height="15.0" style="fill:orange; stroke:rgb(0,0,0);" rx="1"/>
<text x="437" y="73" style="font-family:sans-serif;font-size:10px;">
expr
</text>
<rect x="410.0" y="96.0" width="26.0" height="15.0" style="fill:orange; stroke:rgb(0,0,0);" rx="1"/>
<text x="412" y="105" style="font-family:sans-serif;font-size:10px;">
expr
</text>
<rect x="437.25" y="192.0" width="10.0" height="15.0" style="fill:orange; stroke:rgb(0,0,0);" rx="1"/>
<text x="439" y="201" style="font-family:sans-serif;font-size:10px;">
c
</text>
<rect x="460.0" y="96.0" width="26.0" height="15.0" style="fill:orange; stroke:rgb(0,0,0);" rx="1"/>
<text x="462" y="105" style="font-family:sans-serif;font-size:10px;">
expr
</text>
<rect x="18.75" y="32.0" width="24.0" height="15.0" style="fill:orange; stroke:rgb(0,0,0);" rx="1"/>
<text x="20" y="41" style="font-family:sans-serif;font-size:10px;">
decl
</text>
<rect x="401.0" y="64.0" width="10.0" height="15.0" style="fill:orange; stroke:rgb(0,0,0);" rx="1"/>
<text x="403" y="73" style="font-family:sans-serif;font-size:10px;">
d
</text>
<rect x="418.0" y="64.0" width="10.0" height="15.0" style="fill:orange; stroke:rgb(0,0,0);" rx="1"/>
<text x="420" y="73" style="font-family:sans-serif;font-size:10px;">
=
</text>
<rect x="219.25" y="32.0" width="24.0" height="15.0" style="fill:orange; stroke:rgb(0,0,0);" rx="1"/>
<text x="221" y="41" style="font-family:sans-serif;font-size:10px;">
decl
</text>
<rect x="354.0" y="32.0" width="36.0" height="15.0" style="fill:orange; stroke:rgb(0,0,0);" rx="1"/>
<text x="356" y="41" style="font-family:sans-serif;font-size:10px;">
assign
</text>
<rect x="384.0" y="64.0" width="10.0" height="15.0" style="fill:orange; stroke:rgb(0,0,0);" rx="1"/>
<text x="386" y="73" style="font-family:sans-serif;font-size:10px;">
5
</text>
<rect x="429.25" y="160.0" width="26.0" height="15.0" style="fill:orange; stroke:rgb(0,0,0);" rx="1"/>
<text x="431" y="169" style="font-family:sans-serif;font-size:10px;">
expr
</text>
<rect x="516.0" y="96.0" width="10.0" height="15.0" style="fill:orange; stroke:rgb(0,0,0);" rx="1"/>
<text x="518" y="105" style="font-family:sans-serif;font-size:10px;">
d
</text>
<rect x="242.0" y="64.0" width="25.0" height="15.0" style="fill:orange; stroke:rgb(0,0,0);" rx="1"/>
<text x="244" y="73" style="font-family:sans-serif;font-size:10px;">
Real
</text>
<rect x="44.0" y="64.0" width="15.0" height="15.0" style="fill:orange; stroke:rgb(0,0,0);" rx="1"/>
<text x="46" y="73" style="font-family:sans-serif;font-size:10px;">
Int
</text>
<rect x="443.0" y="128.0" width="8.0" height="15.0" style="fill:orange; stroke:rgb(0,0,0);" rx="1"/>
<text x="445" y="137" style="font-family:sans-serif;font-size:10px;">
)
</text>
<rect x="225.0" y="64.0" width="10.0" height="15.0" style="fill:orange; stroke:rgb(0,0,0);" rx="1"/>
<text x="227" y="73" style="font-family:sans-serif;font-size:10px;">
d
</text>
<rect x="468.0" y="64.0" width="33.0" height="15.0" style="fill:orange; stroke:rgb(0,0,0);" rx="1"/>
<text x="470" y="73" style="font-family:sans-serif;font-size:10px;">
return
</text>
</svg>