<svg width="1557.6000000000001" height="627.0" xmlns="http://www.w3.org/2000/svg" xmlns:xlink="http://www.w3.org/1999/xlink"><line x1="281.75" y1="7.5" x2="30.75" y2="32.0" style="stroke:black; stroke-width:1px;" />
<line x1="30.75" y1="39.5" x2="10.0" y2="64.0" style="stroke:black; stroke-width:1px;" />
<line x1="30.75" y1="39.5" x2="32.0" y2="64.0" style="stroke:black; stroke-width:1px;" />
<line x1="30.75" y1="39.5" x2="51.5" y2="64.0" style="stroke:black; stroke-width:1px;" />
<line x1="281.75" y1="7.5" x2="96.75" y2="32.0" style="stroke:black; stroke-width:1px;" />
<line x1="96.75" y1="39.5" x2="76.0" y2="64.0" style="stroke:black; stroke-width:1px;" />
<line x1="96.75" y1="39.5" x2="98.0" y2="64.0" style="stroke:black; stroke-width:1px;" />
<line x1="96.75" y1="39.5" x2="117.5" y2="64.0" style="stroke:black; stroke-width:1px;" />
<line x1="281.75" y1="7.5" x2="168.25" y2="32.0" style="stroke:black; stroke-width:1px;" />
<line x1="168.25" y1="39.5" x2="142.0" y2="64.0" style="stroke:black; stroke-width:1px;" />
<line x1="168.25" y1="39.5" x2="169.5" y2="64.0" style="stroke:black; stroke-width:1px;" />
<line x1="168.25" y1="39.5" x2="194.5" y2="64.0" style="stroke:black; stroke-width:1px;" />
<line x1="281.75" y1="7.5" x2="232.5" y2="32.0" style="stroke:black; stroke-width:1px;" />
<line x1="232.5" y1="39.5" x2="232.5" y2="64.0" style="stroke:black; stroke-width:1px;" />
<line x1="232.5" y1="71.5" x2="48.0" y2="96.0" style="stroke:black; stroke-width:1px;" />
<line x1="232.5" y1="71.5" x2="73.0" y2="96.0" style="stroke:black; stroke-width:1px;" />
<line x1="73.0" y1="103.5" x2="49.0" y2="128.0" style="stroke:black; stroke-width:1px;" />
<line x1="73.0" y1="103.5" x2="73.0" y2="128.0" style="stroke:black; stroke-width:1px;" />
<line x1="73.0" y1="135.5" x2="48.0" y2="160.0" style="stroke:black; stroke-width:1px;" />
<line x1="48.0" y1="167.5" x2="48.0" y2="192.0" style="stroke:black; stroke-width:1px;" />
<line x1="73.0" y1="135.5" x2="73.0" y2="160.0" style="stroke:black; stroke-width:1px;" />
<line x1="73.0" y1="135.5" x2="98.0" y2="160.0" style="stroke:black; stroke-width:1px;" />
<line x1="98.0" y1="167.5" x2="98.0" y2="192.0" style="stroke:black; stroke-width:1px;" />
<line x1="73.0" y1="103.5" x2="97.0" y2="128.0" style="stroke:black; stroke-width:1px;" />
<line x1="232.5" y1="71.5" x2="114.5" y2="96.0" style="stroke:black; stroke-width:1px;" />
<line x1="232.5" y1="71.5" x2="156.0" y2="96.0" style="stroke:black; stroke-width:1px;" />
<line x1="156.0" y1="103.5" x2="132.0" y2="128.0" style="stroke:black; stroke-width:1px;" />
<line x1="156.0" y1="103.5" x2="156.0" y2="128.0" style="stroke:black; stroke-width:1px;" />
<line x1="156.0" y1="135.5" x2="131.0" y2="160.0" style="stroke:black; stroke-width:1px;" />
<line x1="131.0" y1="167.5" x2="131.0" y2="192.0" style="stroke:black; stroke-width:1px;" />
<line x1="156.0" y1="135.5" x2="156.0" y2="160.0" style="stroke:black; stroke-width:1px;" />
<line x1="156.0" y1="135.5" x2="181.0" y2="160.0" style="stroke:black; stroke-width:1px;" />
<line x1="181.0" y1="167.5" x2="181.0" y2="192.0" style="stroke:black; stroke-width:1px;" />
<line x1="156.0" y1="103.5" x2="180.0" y2="128.0" style="stroke:black; stroke-width:1px;" />
<line x1="232.5" y1="71.5" x2="239.0" y2="96.0" style="stroke:black; stroke-width:1px;" />
<line x1="239.0" y1="103.5" x2="215.0" y2="128.0" style="stroke:black; stroke-width:1px;" />
<line x1="239.0" y1="103.5" x2="239.0" y2="128.0" style="stroke:black; stroke-width:1px;" />
<line x1="239.0" y1="135.5" x2="214.0" y2="160.0" style="stroke:black; stroke-width:1px;" />
<line x1="214.0" y1="167.5" x2="214.0" y2="192.0" style="stroke:black; stroke-width:1px;" />
<line x1="239.0" y1="135.5" x2="239.0" y2="160.0" style="stroke:black; stroke-width:1px;" />
<line x1="239.0" y1="135.5" x2="264.0" y2="160.0" style="stroke:black; stroke-width:1px;" />
<line x1="264.0" y1="167.5" x2="264.0" y2="192.0" style="stroke:black; stroke-width:1px;" />
<line x1="239.0" y1="103.5" x2="263.0" y2="128.0" style="stroke:black; stroke-width:1px;" />
<line x1="232.5" y1="71.5" x2="322.0" y2="96.0" style="stroke:black; stroke-width:1px;" />
<line x1="322.0" y1="103.5" x2="298.0" y2="128.0" style="stroke:black; stroke-width:1px;" />
<line x1="322.0" y1="103.5" x2="322.0" y2="128.0" style="stroke:black; stroke-width:1px;" />
<line x1="322.0" y1="135.5" x2="297.0" y2="160.0" style="stroke:black; stroke-width:1px;" />
<line x1="297.0" y1="167.5" x2="297.0" y2="192.0" style="stroke:black; stroke-width:1px;" />
<line x1="322.0" y1="135.5" x2="322.0" y2="160.0" style="stroke:black; stroke-width:1px;" />
<line x1="322.0" y1="135.5" x2="347.0" y2="160.0" style="stroke:black; stroke-width:1px;" />
<line x1="347.0" y1="167.5" x2="347.0" y2="192.0" style="stroke:black; stroke-width:1px;" />
<line x1="322.0" y1="103.5" x2="346.0" y2="128.0" style="stroke:black; stroke-width:1px;" />
<line x1="232.5" y1="71.5" x2="354.0" y2="96.0" style="stroke:black; stroke-width:1px;" />
<line x1="232.5" y1="71.5" x2="386.0" y2="96.0" style="stroke:black; stroke-width:1px;" />
<line x1="386.0" y1="103.5" x2="386.0" y2="128.0" style="stroke:black; stroke-width:1px;" />
<line x1="232.5" y1="71.5" x2="417.0" y2="96.0" style="stroke:black; stroke-width:1px;" />
<line x1="281.75" y1="7.5" x2="421.75" y2="32.0" style="stroke:black; stroke-width:1px;" />
<line x1="421.75" y1="39.5" x2="403.5" y2="64.0" style="stroke:black; stroke-width:1px;" />
<line x1="421.75" y1="39.5" x2="440.0" y2="64.0" style="stroke:black; stroke-width:1px;" />
<line x1="440.0" y1="71.5" x2="440.0" y2="96.0" style="stroke:black; stroke-width:1px;" />
<line x1="281.75" y1="7.5" x2="494.75" y2="32.0" style="stroke:black; stroke-width:1px;" />
<line x1="494.75" y1="39.5" x2="476.5" y2="64.0" style="stroke:black; stroke-width:1px;" />
<line x1="494.75" y1="39.5" x2="513.0" y2="64.0" style="stroke:black; stroke-width:1px;" />
<line x1="513.0" y1="71.5" x2="513.0" y2="96.0" style="stroke:black; stroke-width:1px;" />
<line x1="281.75" y1="7.5" x2="532.75" y2="32.0" style="stroke:black; stroke-width:1px;" />
<rect x="93.0" y="64.0" width="10.0" height="15.0" style="fill:orange; stroke:rgb(0,0,0);" rx="1"/>
<text x="95" y="73" style="font-family:sans-serif;font-size:10px;">
y
</text>
<rect x="168.0" y="160.0" width="26.0" height="15.0" style="fill:orange; stroke:rgb(0,0,0);" rx="1"/>
<text x="170" y="169" style="font-family:sans-serif;font-size:10px;">
expr
</text>
<rect x="387.0" y="64.0" width="33.0" height="15.0" style="fill:orange; stroke:rgb(0,0,0);" rx="1"/>
<text x="389" y="73" style="font-family:sans-serif;font-size:10px;">
return
</text>
<rect x="234.0" y="160.0" width="10.0" height="15.0" style="fill:orange; stroke:rgb(0,0,0);" rx="1"/>
<text x="236" y="169" style="font-family:sans-serif;font-size:10px;">
=
</text>
<rect x="156.25" y="32.0" width="24.0" height="15.0" style="fill:orange; stroke:rgb(0,0,0);" rx="1"/>
<text x="158" y="41" style="font-family:sans-serif;font-size:10px;">
decl
</text>
<rect x="373.0" y="96.0" width="26.0" height="15.0" style="fill:orange; stroke:rgb(0,0,0);" rx="1"/>
<text x="375" y="105" style="font-family:sans-serif;font-size:10px;">
expr
</text>
<rect x="120.5" y="192.0" width="21.0" height="15.0" style="fill:orange; stroke:rgb(0,0,0);" rx="1"/>
<text x="122" y="201" style="font-family:sans-serif;font-size:10px;">
tmp
</text>
<rect x="0.0" y="64.0" width="20.0" height="15.0" style="fill:orange; stroke:rgb(0,0,0);" rx="1"/>
<text x="2" y="73" style="font-family:sans-serif;font-size:10px;">
var
</text>
<rect x="259.0" y="128.0" width="8.0" height="15.0" style="fill:orange; stroke:rgb(0,0,0);" rx="1"/>
<text x="261" y="137" style="font-family:sans-serif;font-size:10px;">
)
</text>
<rect x="427.0" y="64.0" width="26.0" height="15.0" style="fill:orange; stroke:rgb(0,0,0);" rx="1"/>
<text x="429" y="73" style="font-family:sans-serif;font-size:10px;">
expr
</text>
<rect x="151.0" y="160.0" width="10.0" height="15.0" style="fill:orange; stroke:rgb(0,0,0);" rx="1"/>
<text x="153" y="169" style="font-family:sans-serif;font-size:10px;">
=
</text>
<rect x="43.0" y="192.0" width="10.0" height="15.0" style="fill:orange; stroke:rgb(0,0,0);" rx="1"/>
<text x="45" y="201" style="font-family:sans-serif;font-size:10px;">
x
</text>
<rect x="251.0" y="160.0" width="26.0" height="15.0" style="fill:orange; stroke:rgb(0,0,0);" rx="1"/>
<text x="253" y="169" style="font-family:sans-serif;font-size:10px;">
expr
</text>
<rect x="309.0" y="128.0" width="26.0" height="15.0" style="fill:orange; stroke:rgb(0,0,0);" rx="1"/>
<text x="311" y="137" style="font-family:sans-serif;font-size:10px;">
expr
</text>
<rect x="110.0" y="64.0" width="15.0" height="15.0" style="fill:orange; stroke:rgb(0,0,0);" rx="1"/>
<text x="112" y="73" style="font-family:sans-serif;font-size:10px;">
Int
</text>
<rect x="201.0" y="160.0" width="26.0" height="15.0" style="fill:orange; stroke:rgb(0,0,0);" rx="1"/>
<text x="203" y="169" style="font-family:sans-serif;font-size:10px;">
expr
</text>
<rect x="219.5" y="32.0" width="26.0" height="15.0" style="fill:orange; stroke:rgb(0,0,0);" rx="1"/>
<text x="221" y="41" style="font-family:sans-serif;font-size:10px;">
expr
</text>
<rect x="294.0" y="128.0" width="8.0" height="15.0" style="fill:orange; stroke:rgb(0,0,0);" rx="1"/>
<text x="296" y="137" style="font-family:sans-serif;font-size:10px;">
(
</text>
<rect x="259.0" y="192.0" width="10.0" height="15.0" style="fill:orange; stroke:rgb(0,0,0);" rx="1"/>
<text x="261" y="201" style="font-family:sans-serif;font-size:10px;">
x
</text>
<rect x="60.0" y="96.0" width="26.0" height="15.0" style="fill:orange; stroke:rgb(0,0,0);" rx="1"/>
<text x="62" y="105" style="font-family:sans-serif;font-size:10px;">
expr
</text>
<rect x="102.0" y="96.0" width="25.0" height="15.0" style="fill:orange; stroke:rgb(0,0,0);" rx="1"/>
<text x="104" y="105" style="font-family:sans-serif;font-size:10px;">
then
</text>
<rect x="226.0" y="128.0" width="26.0" height="15.0" style="fill:orange; stroke:rgb(0,0,0);" rx="1"/>
<text x="228" y="137" style="font-family:sans-serif;font-size:10px;">
expr
</text>
<rect x="85.0" y="160.0" width="26.0" height="15.0" style="fill:orange; stroke:rgb(0,0,0);" rx="1"/>
<text x="87" y="169" style="font-family:sans-serif;font-size:10px;">
expr
</text>
<rect x="381.0" y="128.0" width="10.0" height="15.0" style="fill:orange; stroke:rgb(0,0,0);" rx="1"/>
<text x="383" y="137" style="font-family:sans-serif;font-size:10px;">
0
</text>
<rect x="18.75" y="32.0" width="24.0" height="15.0" style="fill:orange; stroke:rgb(0,0,0);" rx="1"/>
<text x="20" y="41" style="font-family:sans-serif;font-size:10px;">
decl
</text>
<rect x="500.0" y="64.0" width="26.0" height="15.0" style="fill:orange; stroke:rgb(0,0,0);" rx="1"/>
<text x="502" y="73" style="font-family:sans-serif;font-size:10px;">
expr
</text>
<rect x="27.0" y="64.0" width="10.0" height="15.0" style="fill:orange; stroke:rgb(0,0,0);" rx="1"/>
<text x="29" y="73" style="font-family:sans-serif;font-size:10px;">
x
</text>
<rect x="268.75" y="0.0" width="26.0" height="15.0" style="fill:orange; stroke:rgb(0,0,0);" rx="1"/>
<text x="270" y="9" style="font-family:sans-serif;font-size:10px;">
prog
</text>
<rect x="176.0" y="128.0" width="8.0" height="15.0" style="fill:orange; stroke:rgb(0,0,0);" rx="1"/>
<text x="178" y="137" style="font-family:sans-serif;font-size:10px;">
)
</text>
<rect x="43.0" y="96.0" width="10.0" height="15.0" style="fill:orange; stroke:rgb(0,0,0);" rx="1"/>
<text x="45" y="105" style="font-family:sans-serif;font-size:10px;">
if
</text>
<rect x="118.0" y="160.0" width="26.0" height="15.0" style="fill:orange; stroke:rgb(0,0,0);" rx="1"/>
<text x="120" y="169" style="font-family:sans-serif;font-size:10px;">
expr
</text>
<rect x="336.5" y="192.0" width="21.0" height="15.0" style="fill:orange; stroke:rgb(0,0,0);" rx="1"/>
<text x="338" y="201" style="font-family:sans-serif;font-size:10px;">
tmp
</text>
<rect x="481.75" y="32.0" width="26.0" height="15.0" style="fill:orange; stroke:rgb(0,0,0);" rx="1"/>
<text x="483" y="41" style="font-family:sans-serif;font-size:10px;">
expr
</text>
<rect x="342.0" y="128.0" width="8.0" height="15.0" style="fill:orange; stroke:rgb(0,0,0);" rx="1"/>
<text x="344" y="137" style="font-family:sans-serif;font-size:10px;">
)
</text>
<rect x="508.0" y="96.0" width="10.0" height="15.0" style="fill:orange; stroke:rgb(0,0,0);" rx="1"/>
<text x="510" y="105" style="font-family:sans-serif;font-size:10px;">
y
</text>
<rect x="159.0" y="64.0" width="21.0" height="15.0" style="fill:orange; stroke:rgb(0,0,0);" rx="1"/>
<text x="161" y="73" style="font-family:sans-serif;font-size:10px;">
tmp
</text>
<rect x="66.0" y="64.0" width="20.0" height="15.0" style="fill:orange; stroke:rgb(0,0,0);" rx="1"/>
<text x="68" y="73" style="font-family:sans-serif;font-size:10px;">
var
</text>
<rect x="514.75" y="32.0" width="36.0" height="15.0" style="fill:orange; stroke:rgb(0,0,0);" rx="1"/>
<text x="516" y="41" style="font-family:sans-serif;font-size:10px;">
&lt;EOF&gt;
</text>
<rect x="408.75" y="32.0" width="26.0" height="15.0" style="fill:orange; stroke:rgb(0,0,0);" rx="1"/>
<text x="410" y="41" style="font-family:sans-serif;font-size:10px;">
expr
</text>
<rect x="143.0" y="96.0" width="26.0" height="15.0" style="fill:orange; stroke:rgb(0,0,0);" rx="1"/>
<text x="145" y="105" style="font-family:sans-serif;font-size:10px;">
expr
</text>
<rect x="209.0" y="64.0" width="47.0" height="15.0" style="fill:orange; stroke:rgb(0,0,0);" rx="1"/>
<text x="211" y="73" style="font-family:sans-serif;font-size:10px;">
condition
</text>
<rect x="44.0" y="64.0" width="15.0" height="15.0" style="fill:orange; stroke:rgb(0,0,0);" rx="1"/>
<text x="46" y="73" style="font-family:sans-serif;font-size:10px;">
Int
</text>
<rect x="35.0" y="160.0" width="26.0" height="15.0" style="fill:orange; stroke:rgb(0,0,0);" rx="1"/>
<text x="37" y="169" style="font-family:sans-serif;font-size:10px;">
expr
</text>
<rect x="460.0" y="64.0" width="33.0" height="15.0" style="fill:orange; stroke:rgb(0,0,0);" rx="1"/>
<text x="462" y="73" style="font-family:sans-serif;font-size:10px;">
return
</text>
<rect x="93.0" y="192.0" width="10.0" height="15.0" style="fill:orange; stroke:rgb(0,0,0);" rx="1"/>
<text x="95" y="201" style="font-family:sans-serif;font-size:10px;">
y
</text>
<rect x="187.0" y="64.0" width="15.0" height="15.0" style="fill:orange; stroke:rgb(0,0,0);" rx="1"/>
<text x="189" y="73" style="font-family:sans-serif;font-size:10px;">
Int
</text>
<rect x="128.0" y="128.0" width="8.0" height="15.0" style="fill:orange; stroke:rgb(0,0,0);" rx="1"/>
<text x="130" y="137" style="font-family:sans-serif;font-size:10px;">
(
</text>
<rect x="68.0" y="160.0" width="10.0" height="15.0" style="fill:orange; stroke:rgb(0,0,0);" rx="1"/>
<text x="70" y="169" style="font-family:sans-serif;font-size:10px;">
&gt;
</text>
<rect x="176.0" y="192.0" width="10.0" height="15.0" style="fill:orange; stroke:rgb(0,0,0);" rx="1"/>
<text x="178" y="201" style="font-family:sans-serif;font-size:10px;">
y
</text>
<rect x="226.0" y="96.0" width="26.0" height="15.0" style="fill:orange; stroke:rgb(0,0,0);" rx="1"/>
<text x="228" y="105" style="font-family:sans-serif;font-size:10px;">
expr
</text>
<rect x="292.0" y="192.0" width="10.0" height="15.0" style="fill:orange; stroke:rgb(0,0,0);" rx="1"/>
<text x="294" y="201" style="font-family:sans-serif;font-size:10px;">
y
</text>
<rect x="435.0" y="96.0" width="10.0" height="15.0" style="fill:orange; stroke:rgb(0,0,0);" rx="1"/>
<text x="437" y="105" style="font-family:sans-serif;font-size:10px;">
x
</text>
<rect x="132.0" y="64.0" width="20.0" height="15.0" style="fill:orange; stroke:rgb(0,0,0);" rx="1"/>
<text x="134" y="73" style="font-family:sans-serif;font-size:10px;">
var
</text>
<rect x="84.75" y="32.0" width="24.0" height="15.0" style="fill:orange; stroke:rgb(0,0,0);" rx="1"/>
<text x="86" y="41" style="font-family:sans-serif;font-size:10px;">
decl
</text>
<rect x="406.0" y="96.0" width="22.0" height="15.0" style="fill:orange; stroke:rgb(0,0,0);" rx="1"/>
<text x="408" y="105" style="font-family:sans-serif;font-size:10px;">
end
</text>
<rect x="143.0" y="128.0" width="26.0" height="15.0" style="fill:orange; stroke:rgb(0,0,0);" rx="1"/>
<text x="145" y="137" style="font-family:sans-serif;font-size:10px;">
expr
</text>
<rect x="334.0" y="160.0" width="26.0" height="15.0" style="fill:orange; stroke:rgb(0,0,0);" rx="1"/>
<text x="336" y="169" style="font-family:sans-serif;font-size:10px;">
expr
</text>
<rect x="211.0" y="128.0" width="8.0" height="15.0" style="fill:orange; stroke:rgb(0,0,0);" rx="1"/>
<text x="213" y="137" style="font-family:sans-serif;font-size:10px;">
(
</text>
<rect x="209.0" y="192.0" width="10.0" height="15.0" style="fill:orange; stroke:rgb(0,0,0);" rx="1"/>
<text x="211" y="201" style="font-family:sans-serif;font-size:10px;">
y
</text>
<rect x="45.0" y="128.0" width="8.0" height="15.0" style="fill:orange; stroke:rgb(0,0,0);" rx="1"/>
<text x="47" y="137" style="font-family:sans-serif;font-size:10px;">
(
</text>
<rect x="284.0" y="160.0" width="26.0" height="15.0" style="fill:orange; stroke:rgb(0,0,0);" rx="1"/>
<text x="286" y="169" style="font-family:sans-serif;font-size:10px;">
expr
</text>
<rect x="309.0" y="96.0" width="26.0" height="15.0" style="fill:orange; stroke:rgb(0,0,0);" rx="1"/>
<text x="311" y="105" style="font-family:sans-serif;font-size:10px;">
expr
</text>
<rect x="93.0" y="128.0" width="8.0" height="15.0" style="fill:orange; stroke:rgb(0,0,0);" rx="1"/>
<text x="95" y="137" style="font-family:sans-serif;font-size:10px;">
)
</text>
<rect x="317.0" y="160.0" width="10.0" height="15.0" style="fill:orange; stroke:rgb(0,0,0);" rx="1"/>
<text x="319" y="169" style="font-family:sans-serif;font-size:10px;">
=
</text>
<rect x="342.0" y="96.0" width="24.0" height="15.0" style="fill:orange; stroke:rgb(0,0,0);" rx="1"/>
<text x="344" y="105" style="font-family:sans-serif;font-size:10px;">
else
</text>
<rect x="60.0" y="128.0" width="26.0" height="15.0" style="fill:orange; stroke:rgb(0,0,0);" rx="1"/>
<text x="62" y="137" style="font-family:sans-serif;font-size:10px;">
expr
</text>
</svg>